<svg xmlns="http://www.w3.org/2000/svg" xmlns:xlink="http://www.w3.org/1999/xlink" version="1.1" x="0px" y="0px" viewBox="0 0 2000 2500" enable-background="new 0 0 2000 2000" xml:space="preserve"><g><polygon points="1296.747,1173.247 1452.474,1017.52 858.317,858.316 1017.52,1452.473 1173.246,1296.746 1474.92,1598.421    1598.42,1474.92  "/><path d="M858.317,615.281c124.719,0,228.62,93.383,241.682,217.217c1.358,12.879,12.899,22.214,25.779,20.859   c12.878-1.357,22.217-12.899,20.859-25.777c-7.469-70.811-40.769-136.238-93.767-184.229   c-53.384-48.343-122.477-74.966-194.552-74.966c-77.444,0-150.251,30.158-205.012,84.918   c-54.761,54.762-84.919,127.569-84.919,205.014c0,146.496,109.516,270.229,254.744,287.813c5.954,0.721,12.007,1.264,17.99,1.614   c0.466,0.027,0.929,0.041,1.39,0.041c12.323,0,22.658-9.618,23.387-22.081c0.756-12.928-9.111-24.021-22.04-24.776   c-5.018-0.293-10.095-0.749-15.09-1.354c-121.706-14.736-213.485-118.454-213.485-241.257   C615.282,724.306,724.307,615.281,858.317,615.281z"/><path d="M858.317,1268.157c-3.674,0-7.429-0.05-11.161-0.149c-223.559-5.971-398.68-185.928-398.68-409.691   c0-225.987,183.854-409.841,409.84-409.841c225.987,0,409.841,183.854,409.841,409.841c0,12.95,10.498,23.448,23.448,23.448   s23.448-10.498,23.448-23.448c0-61.648-12.08-121.466-35.902-177.79c-23.005-54.392-55.935-103.233-97.873-145.173   c-41.939-41.938-90.781-74.867-145.172-97.871c-56.324-23.824-116.141-35.903-177.79-35.903s-121.466,12.079-177.79,35.903   c-54.391,23.004-103.234,55.934-145.172,97.871c-41.938,41.939-74.867,90.781-97.873,145.173   c-23.823,56.324-35.902,116.142-35.902,177.79c0,119.836,46.068,233.074,129.718,318.854   c83.495,85.62,195.224,134.529,314.608,137.718c4.147,0.109,8.323,0.166,12.41,0.166c12.95,0,23.448-10.498,23.448-23.448   S871.267,1268.157,858.317,1268.157z"/></g><text x="0" y="2015" fill="#000000" font-size="5px" font-weight="bold" font-family="'Helvetica Neue', Helvetica, Arial-Unicode, Arial, Sans-serif">Created by Rifai</text><text x="0" y="2020" fill="#000000" font-size="5px" font-weight="bold" font-family="'Helvetica Neue', Helvetica, Arial-Unicode, Arial, Sans-serif">from the Noun Project</text></svg>